<svg width="24" height="25" viewBox="0 0 24 25" fill="none" xmlns="http://www.w3.org/2000/svg">
<path d="M9.81267 0.500077C9.66167 0.498143 9.51245 0.532709 9.37768 0.600834C9.24291 0.668959 9.12659 0.768628 9.03862 0.891362C8.95064 1.0141 8.89361 1.15626 8.87238 1.30577C8.85115 1.45528 8.86634 1.6077 8.91667 1.75008H6.15056C5.00228 1.75008 3.927 2.32473 3.29045 3.28084L1.81096 5.50008H1.68767C1.56344 5.49832 1.4401 5.52127 1.32482 5.5676C1.20953 5.61392 1.10461 5.6827 1.01614 5.76993C0.927664 5.85716 0.857411 5.9611 0.80946 6.07572C0.761509 6.19033 0.736816 6.31333 0.736816 6.43758C0.736816 6.56182 0.761509 6.68482 0.80946 6.79944C0.857411 6.91405 0.927664 7.018 1.01614 7.10523C1.10461 7.19246 1.20953 7.26123 1.32482 7.30756C1.4401 7.35388 1.56344 7.37683 1.68767 7.37508H2.16496C2.24538 7.38723 2.32704 7.38887 2.40788 7.37996L3.95329 21.8038C4.13976 23.5427 5.62257 24.8751 7.37126 24.8751H16.6279C18.3766 24.8751 19.8594 23.5427 20.0458 21.8038L21.5925 7.37996C21.6717 7.38845 21.7517 7.38681 21.8305 7.37508H22.3127C22.4369 7.37683 22.5602 7.35388 22.6755 7.30756C22.7908 7.26123 22.8957 7.19246 22.9842 7.10523C23.0727 7.018 23.1429 6.91405 23.1909 6.79944C23.2388 6.68482 23.2635 6.56182 23.2635 6.43758C23.2635 6.31333 23.2388 6.19033 23.1909 6.07572C23.1429 5.9611 23.0727 5.85716 22.9842 5.76993C22.8957 5.6827 22.7908 5.61392 22.6755 5.5676C22.5602 5.52127 22.4369 5.49832 22.3127 5.50008H22.1894L20.7099 3.28084C20.0728 2.32525 18.9977 1.75008 17.8498 1.75008H15.0837C15.134 1.6077 15.1492 1.45528 15.128 1.30577C15.1067 1.15626 15.0497 1.0141 14.9617 0.891362C14.8737 0.768628 14.7574 0.668959 14.6227 0.600834C14.4879 0.532709 14.3387 0.498143 14.1877 0.500077H9.81267ZM6.15056 3.62508H17.8498C18.3731 3.62508 18.8594 3.88521 19.1498 4.32088L19.936 5.50008H4.06438L4.85051 4.32088C4.85092 4.32047 4.85132 4.32006 4.85173 4.31966C5.14141 3.88454 5.62634 3.62508 6.15056 3.62508ZM4.29387 7.37508H19.7065L18.1818 21.6036C18.0958 22.4059 17.4342 23.0001 16.6279 23.0001H7.37126C6.56496 23.0001 5.90456 22.4059 5.81853 21.6036L4.29387 7.37508Z" fill="#E71717"/>
</svg>
