<svg width="14" height="7" viewBox="0 0 14 7" fill="none" xmlns="http://www.w3.org/2000/svg">
<path d="M12.9211 0.196935C12.7686 0.0708371 12.5618 -4.24615e-07 12.3462 -4.05766e-07C12.1306 -3.86916e-07 11.9238 0.0708371 11.7713 0.196935L6.65427 4.42976L1.53721 0.196936C1.38385 0.0744119 1.17845 0.00661526 0.965249 0.00814783C0.752048 0.0096804 0.548103 0.0804192 0.397341 0.205129C0.246579 0.329839 0.161063 0.498542 0.15921 0.674902C0.157357 0.851261 0.239316 1.02117 0.387435 1.14803L6.07938 5.85639C6.23187 5.98249 6.43866 6.05333 6.65427 6.05333C6.86988 6.05333 7.07667 5.98249 7.22916 5.85639L12.9211 1.14803C13.0735 1.02189 13.1592 0.850835 13.1592 0.67248C13.1592 0.494124 13.0735 0.323071 12.9211 0.196935Z" fill="#2F4458"/>
</svg>
