<svg width="10" height="13" viewBox="0 0 10 13" fill="none" xmlns="http://www.w3.org/2000/svg">
<g clip-path="url(#clip0_52_88)">
<path d="M3.07491 4.25024C3.09136 4.25199 3.11936 4.25759 3.14736 4.25759C4.3705 4.25759 5.59364 4.25584 6.81713 4.25899C6.93787 4.25899 6.96376 4.21104 6.96201 4.10325C6.95676 3.78898 6.96446 3.47436 6.95781 3.16009C6.93612 2.16268 6.15779 1.34025 5.16458 1.25941C4.15912 1.17787 3.23275 1.8617 3.08646 2.85387C3.02032 3.30253 3.07526 3.76903 3.07526 4.24954L3.07491 4.25024ZM8.2149 4.24044C8.37449 4.25864 8.51377 4.26564 8.64886 4.29154C9.42089 4.43887 9.99239 5.11326 9.99519 5.89894C10.0008 7.50075 10.0015 9.10255 9.99519 10.7044C9.99169 11.6031 9.23156 12.3345 8.30729 12.3359C6.24423 12.3391 4.18151 12.338 2.11845 12.3359C1.87452 12.3359 1.62639 12.3422 1.38737 12.303C0.598186 12.1732 0.0154888 11.5093 0.00953935 10.7096C-0.00235958 9.10185 -0.00340949 7.4941 0.00883941 5.88669C0.0154888 4.99952 0.725575 4.29049 1.60645 4.26284C1.75658 4.25794 1.78458 4.20614 1.78913 4.06791C1.80488 3.55695 1.78038 3.0362 1.87172 2.53749C2.1482 1.02843 3.58972 -0.0722217 5.12363 0.00407145C6.88747 0.0915636 8.21315 1.48304 8.2149 3.24828C8.2149 3.5783 8.2149 3.90867 8.2149 4.24044ZM4.47479 9.46197H5.52994C5.46065 9.1442 5.4001 8.84323 5.32731 8.54505C5.30141 8.43936 5.32101 8.37917 5.40955 8.31058C5.73222 8.0593 5.76232 7.60994 5.48655 7.31211C5.23177 7.03739 4.79221 7.03739 4.51993 7.31247C4.24451 7.59069 4.26411 8.04705 4.57908 8.29798C4.68722 8.38407 4.69632 8.46001 4.66727 8.579C4.59763 8.86633 4.54058 9.15645 4.47479 9.46162V9.46197Z" fill="white"/>
</g>
<defs>
<clipPath id="clip0_52_88">
<rect width="10" height="12.3378" fill="white"/>
</clipPath>
</defs>
</svg>
