<svg width="9" height="13" viewBox="0 0 9 13" fill="none" xmlns="http://www.w3.org/2000/svg">
<path d="M8.29797 5.48948C8.4834 5.63518 8.65086 5.79822 8.78394 5.99469C8.95487 6.30153 9.00154 6.63235 8.99996 6.97987C8.99397 8.3129 8.99776 9.64592 8.99712 10.9789C8.99681 11.9004 8.35474 12.5387 7.42979 12.539C5.55529 12.539 3.68079 12.5356 1.80598 12.5419C1.42818 12.5431 1.06173 12.5242 0.723979 12.335C0.390959 12.1029 0.140879 11.8106 0.0481633 11.4041C0.0200963 11.2807 0.000228674 11.1574 0.000228674 11.0304C0.000859394 9.62889 -0.00134812 8.22775 0.00149011 6.82629C0.00306691 5.96 0.587744 5.33307 1.45372 5.27378C1.58113 5.26495 1.60919 5.22742 1.60825 5.10884C1.6032 4.38446 1.60572 3.6604 1.60541 2.93602C1.60415 1.41472 2.67606 0.178197 4.1882 0.0189399C5.26484 -0.0945896 6.15069 0.304025 6.81673 1.16748C6.85173 1.21289 6.888 1.25704 6.92395 1.30151C7.04379 1.52163 7.16268 1.74143 7.24372 1.98079C7.41749 2.49483 7.38374 3.024 7.37239 3.55223C7.37081 3.62287 7.33928 3.68342 7.30238 3.74113C7.15479 3.97134 6.94319 4.04167 6.61395 3.97071C6.36103 3.83795 6.25602 3.6317 6.2639 3.34441C6.27179 3.05964 6.30143 2.77077 6.21281 2.49073C6.16551 2.30088 6.09487 2.11734 5.99553 1.95146C5.60449 1.29867 4.83469 0.991824 4.06301 1.16906C3.37016 1.32831 2.78359 1.97732 2.73913 2.69697C2.68804 3.51817 2.71579 4.34221 2.72462 5.16529C2.72557 5.24823 2.75363 5.27315 2.83437 5.2722C3.25379 5.26652 3.67354 5.26526 4.09297 5.26242C4.145 5.26495 4.19735 5.26936 4.24938 5.26936C5.28566 5.26936 6.32193 5.26999 7.35852 5.26842C7.56381 5.26842 7.76564 5.28608 7.96401 5.34063C8.07533 5.39015 8.18665 5.43966 8.29797 5.48917V5.48948ZM4.49883 9.98714V9.9862C4.62466 9.9862 4.75081 9.98241 4.87664 9.98746C4.96746 9.99124 4.98102 9.95782 4.96115 9.87519C4.90155 9.62543 4.85046 9.37377 4.79338 9.12369C4.77572 9.04579 4.78266 8.99281 4.85582 8.93636C5.16014 8.70048 5.19199 8.29618 4.93687 8.02624C4.69246 7.76764 4.28124 7.77458 4.04219 8.04169C3.80094 8.31101 3.84162 8.71687 4.14185 8.9392C4.21722 8.99502 4.22258 9.04453 4.20366 9.12306C4.145 9.36778 4.09423 9.61407 4.03525 9.85848C4.01286 9.95182 4.02863 9.99534 4.13649 9.98872C4.25664 9.98147 4.37774 9.98714 4.49852 9.98714H4.49883Z" fill="#FCFCFC"/>
</svg>
