<svg width="7" height="14" viewBox="0 0 7 14" fill="none" xmlns="http://www.w3.org/2000/svg">
<path d="M0.829152 0.711403C0.703054 0.863888 0.632217 1.07068 0.632217 1.28629C0.632217 1.5019 0.703054 1.70869 0.829152 1.86118L5.06198 6.97824L0.829152 12.0953C0.706628 12.2487 0.638831 12.4541 0.640364 12.6673C0.641896 12.8805 0.712636 13.0844 0.837345 13.2352C0.962055 13.3859 1.13076 13.4714 1.30712 13.4733C1.48348 13.4751 1.65338 13.3932 1.78024 13.2451L6.48861 7.55312C6.61471 7.40064 6.68555 7.19385 6.68555 6.97824C6.68555 6.76262 6.61471 6.55584 6.48861 6.40335L1.78024 0.711403C1.65411 0.558964 1.48305 0.473328 1.3047 0.473328C1.12634 0.473328 0.955288 0.558964 0.829152 0.711403V0.711403Z" fill="#2F4458"/>
</svg>
